<svg xmlns="http://www.w3.org/2000/svg" viewBox="0 0 500 500"><g id="freepik--background-complete--inject-41"><path d="M443.92,330.2H263.17a5.87,5.87,0,0,1-5.86-5.86V61.06a5.87,5.87,0,0,1,5.86-5.86H443.92a5.87,5.87,0,0,1,5.86,5.86V324.34A5.87,5.87,0,0,1,443.92,330.2ZM263.17,55.45a5.62,5.62,0,0,0-5.61,5.61V324.34a5.62,5.62,0,0,0,5.61,5.61H443.92a5.61,5.61,0,0,0,5.61-5.61V61.06a5.61,5.61,0,0,0-5.61-5.61Z" style="fill:#e0e0e0"></path><path d="M235.49,330.2H54.75a5.87,5.87,0,0,1-5.87-5.86V61.06a5.87,5.87,0,0,1,5.87-5.86H235.49a5.86,5.86,0,0,1,5.86,5.86V324.34A5.86,5.86,0,0,1,235.49,330.2ZM54.75,55.45a5.62,5.62,0,0,0-5.62,5.61V324.34A5.62,5.62,0,0,0,54.75,330H235.49a5.61,5.61,0,0,0,5.61-5.61V61.06a5.61,5.61,0,0,0-5.61-5.61Z" style="fill:#e0e0e0"></path><rect y="391.27" width="500" height="0.25" style="fill:#e0e0e0"></rect><rect x="51.67" y="405.53" width="16.06" height="0.25" style="fill:#e0e0e0"></rect><rect x="170.35" y="402.82" width="53.53" height="0.25" style="fill:#e0e0e0"></rect><rect x="68.73" y="414.82" width="36.25" height="0.25" style="fill:#e0e0e0"></rect><rect x="378.35" y="402.69" width="43.19" height="0.25" style="fill:#e0e0e0"></rect><rect x="430.45" y="402.69" width="6.33" height="0.25" style="fill:#e0e0e0"></rect><rect x="316.21" y="408.92" width="53.89" height="0.25" style="fill:#e0e0e0"></rect><path d="M454.18,372.65c.27-3.13-.16-7.18-3.81-8.38-6.19-2-9.85-6.83-9.65-12.25s-6.3-10.69-11.19-5.61-4.23-3.91-10.75-6.1-12,3.12-10.24,8-4.64,7.87-12.34,3.75-16.16,3.37-14.53,9.23.29,6.57-4.58,4.56c-3.93-1.58-10.36,1.73-11.09,6.84Z" style="fill:#ebebeb"></path><path d="M104.14,372.65c.29-2.48.16-6.09-2.9-7.1-4.81-1.59-7.66-5.31-7.5-9.51s-4.89-8.31-8.68-4.38-3.28-3-8.34-4.73-9.35,2.42-8,6.18-3.61,6.1-9.58,2.91-12.54,2.63-11.28,7.19.23,5-3.55,3.53c-3.21-1.28-8.52,1.61-8.65,5.91Z" style="fill:#ebebeb"></path><path d="M87,372.65H199.41c1.59-5.27-2.5-11.6-7-12.5-5.47-1.09-10.95-10.72-11.23-16.85s-10.11-25-25.44-13.35-10.66,1.72-21.75-1.55-18.08,6.14-13.21,13.2c0,0-11.14-2.79-15.73,7.61s0,16.85,0,16.85S91,365.66,87,372.65Z" style="fill:#ebebeb"></path><path d="M237.31,85.06a5.3,5.3,0,0,1,5.31-5.29,5.44,5.44,0,0,1,1.5.22,11.18,11.18,0,0,1,9.41-12.7,11.59,11.59,0,0,1,1.66-.12,11.89,11.89,0,0,1,2.07.19,9.79,9.79,0,0,1,18.14,5h.16a9,9,0,0,1,0,18H242.45A5.28,5.28,0,0,1,237.31,85.06Z" style="fill:#f0f0f0"></path><path d="M155.41,47.76a5.3,5.3,0,0,1,5.29-5.3,5.66,5.66,0,0,1,1.52.23,8.71,8.71,0,0,1-.12-1.62,11.19,11.19,0,0,1,11.19-11.19,11.86,11.86,0,0,1,2.06.18A9.79,9.79,0,0,1,193.5,35h.16a9,9,0,1,1,0,18H160.53A5.27,5.27,0,0,1,155.41,47.76Z" style="fill:#f5f5f5"></path><path d="M402.68,85.92A3.28,3.28,0,0,1,406,82.63a3.41,3.41,0,0,1,1,.14,6.87,6.87,0,0,1-.08-1,7,7,0,0,1,7-7h0a6.85,6.85,0,0,1,1.28.12A6.09,6.09,0,0,1,426.36,78h.09a5.62,5.62,0,0,1,.5,11.22,4.17,4.17,0,0,1-.5,0H405.87A3.28,3.28,0,0,1,402.68,85.92Z" style="fill:#f0f0f0"></path><path d="M61.18,77.51a3.28,3.28,0,0,1,3.28-3.29,2.87,2.87,0,0,1,1,.14,8.59,8.59,0,0,1-.08-1,7,7,0,0,1,7-7h0a6.85,6.85,0,0,1,1.28.12,6.09,6.09,0,0,1,11.29,3.07H85a5.61,5.61,0,0,1,0,11.21H64.41A3.28,3.28,0,0,1,61.18,77.51Z" style="fill:#f0f0f0"></path><path d="M96.9,225.35a3.28,3.28,0,0,1,3.27-3.29,3.1,3.1,0,0,1,1,.14,8.57,8.57,0,0,1-.07-1,7,7,0,0,1,7-7h0a6.85,6.85,0,0,1,1.28.12,6.09,6.09,0,0,1,11.29,3.08h.09a5.6,5.6,0,1,1,0,11.2H100.13A3.28,3.28,0,0,1,96.9,225.35Z" style="fill:#f0f0f0"></path><path d="M322.9,60.1a4.34,4.34,0,0,1,4.34-4.35,4.83,4.83,0,0,1,1.25.17,9.8,9.8,0,0,1-.09-1.33,9.21,9.21,0,0,1,9.21-9.21,8.82,8.82,0,0,1,1.7.16,8,8,0,0,1,14.91,4.07h.15a7.42,7.42,0,0,1,0,14.83H327.12A4.33,4.33,0,0,1,322.9,60.1Z" style="fill:#f5f5f5"></path><path d="M240.94,136.23c-1.07-.92-2.42-2.14-1.95-3.43.37-1.05,1.71-1.4,2.46-2.22,1.54-1.69.1-4.43-1.71-5.81s-4.14-2.45-4.89-4.61a6.62,6.62,0,0,0-.61-1.68c-1.09-1.62-3.61-.55-5.18.61a8.3,8.3,0,0,1-1.83,1,4.27,4.27,0,0,0-1.23-2.2c-1.06-.92-2.42-2.14-2-3.43.38-1.06,1.71-1.4,2.48-2.23,1.52-1.68.09-4.42-1.73-5.8s-4.14-2.45-4.87-4.61a6.65,6.65,0,0,0-.62-1.68c-1.09-1.62-3.61-.57-5.18.59s-4.1,2.19-5.18.55c-.62-1-.25-2.29-.85-3.25-1-1.61-3.53-.84-5,.37s-3,2.85-4.86,2.42h0c.47-.2,1-.37,1.43-.59,2.35-1.24,2-5.77.24-7.29-1.07-.92-2.42-2.12-1.95-3.41.38-1.06,1.71-1.4,2.46-2.24,1.54-1.68.1-4.44-1.71-5.81s-4.14-2.45-4.89-4.61a6.77,6.77,0,0,0-.61-1.68c-1.09-1.62-3.62-.55-5.17.61s-4.11,2.17-5.18.53c-.61-.94-.26-2.28-.85-3.25-1-1.6-3.52-.85-5,.38s-3,2.84-4.86,2.42c-1.61-.38-2.49-2.19-4.2-2.4s-3.06,1.54-3.48,3.21-.38,3.51-1.29,5l-.25,0a6.59,6.59,0,0,1-2.65-3,6.39,6.39,0,0,0-.61-1.68c-1.08-1.61-3.62-.57-5.17.6s-4.1,2.18-5.18.54c-.6-.94-.26-2.29-.85-3.25-1-1.6-3.52-.84-5,.38s-3,2.85-4.86,2.41c-1.6-.38-2.48-2.19-4.19-2.4s-3.07,1.54-3.48,3.21-.39,3.51-1.3,5c-2.48-.48-5.88-.39-6.47,2a3.81,3.81,0,0,0,.81,2.94,5,5,0,0,0-.84.58c-1.45,1.21-3,2.84-4.88,2.41-1.59-.37-2.46-2.18-4.18-2.39s-3.08,1.54-3.48,3.21-.39,3.51-1.3,5c-2.49-.47-5.88-.38-6.47,2.06-.38,1.6.86,3.09,1.88,4.39s1.88,3.21.82,4.51a8.57,8.57,0,0,0-4.89,1.23,3.63,3.63,0,0,0-1.4,4.46,5.69,5.69,0,0,0,3.1,2.17c3.68,1.49,2.51,4.75,1.41,7.38a2.33,2.33,0,0,1-.37,0c-1.61-.38-2.49-2.19-4.19-2.39s-3.07,1.54-3.48,3.2-.39,3.51-1.3,5c-2.5-.46-5.89-.37-6.47,2.06-.39,1.6.87,3.09,1.88,4.4s1.86,3.21.81,4.5a8.71,8.71,0,0,0-4.89,1.3,3.67,3.67,0,0,0-1.41,4.46A5.71,5.71,0,0,0,87.53,148c6.44,2.6-2,10.69,1.18,11.22,4.09.69,8.9-.12,9.2,4.92a11.79,11.79,0,0,0,.36,2.43c.78,2.79,2.77,4,6.87,2,2.6-1.23,3.23-2.75,6.2-2.38,2.12.25,3.66,1.73,6,1.54a2,2,0,0,0,.93-.23,2.12,2.12,0,0,0,.71-.75c2.09-3,3.72-1.76,7.12-1.91a1.13,1.13,0,0,0,.75-.22,1.09,1.09,0,0,0,.31-.78,6.86,6.86,0,0,0-.23-2.59,2.22,2.22,0,0,1-.13-1.3c.17-.58.9-.8,1.46-1.07a4.93,4.93,0,0,0,.61-.4,4.64,4.64,0,0,0,1.78-3.2c3.2.3,6.19.69,6.42,4.6a11.18,11.18,0,0,0,.38,2.43c.76,2.79,2.75,4,6.84,2,2.6-1.23,3.24-2.76,6.2-2.38,2.12.25,3.66,1.73,6,1.54a2,2,0,0,0,.93-.23,2.24,2.24,0,0,0,.72-.75c2.08-3,3.71-1.76,7.11-1.91a.81.81,0,0,0,.22,0,.93.93,0,0,0,.84-1,6.93,6.93,0,0,0-.23-2.52,2.2,2.2,0,0,1-.13-1.29c.17-.58.91-.82,1.46-1.08a5.35,5.35,0,0,0,.64-.41,4.64,4.64,0,0,0,1.31-1.66c1.09.33,2.55.12,4.48-.81,2.62-1.22,3.25-2.76,6.21-2.37,2.13.25,3.66,1.72,6,1.54a2.19,2.19,0,0,0,.93-.25,2.32,2.32,0,0,0,.71-.75l.17-.22a1.77,1.77,0,0,1-.36,1.35,6.88,6.88,0,0,0-3.89,1,2.87,2.87,0,0,0-1.1,3.52,4.54,4.54,0,0,0,2.45,1.71c5.07,2-1.59,8.41.93,8.82,3.22.55,7-.09,7.25,3.88a8.9,8.9,0,0,0,.28,1.92c.61,2.2,2.18,3.08,5.45,1.58,2.06-1,2.55-2.18,4.89-1.88,1.68.22,2.88,1.37,4.72,1.22a1.87,1.87,0,0,0,.74-.18,2.29,2.29,0,0,0,.56-.6c1.63-2.33,2.92-1.38,5.6-1.5a1,1,0,0,0,.59-.17.89.89,0,0,0,.24-.62,5.57,5.57,0,0,0-.17-2,1.7,1.7,0,0,1-.12-1c.17-.46.71-.63,1.17-.85a4.76,4.76,0,0,0,.47-.31,3.68,3.68,0,0,0,1.36-3.52,5.2,5.2,0,0,1,2.15-.13c2.12.25,3.66,1.73,6,1.54a2.32,2.32,0,0,0,.94-.23,2.67,2.67,0,0,0,.71-.75c2.07-3,3.71-1.76,7.11-1.91a1.11,1.11,0,0,0,.75-.22,1.09,1.09,0,0,0,.3-.79,6.52,6.52,0,0,0-.22-2.52,2.29,2.29,0,0,1-.14-1.29c.18-.58.91-.82,1.47-1.08a4,4,0,0,0,.59-.38,4.71,4.71,0,0,0,.85-6.59c-.66-.75-1.68-1.4-1.44-2.48s1.7-1.26,2.68-1.78C243,142.27,242.71,137.74,240.94,136.23Zm-112.55,14.2a1.39,1.39,0,0,1,.62-1.91A13.29,13.29,0,0,1,128.39,150.43Z" style="fill:#e6e6e6"></path><path d="M119.35,151.88s8.5,12,11.43,15.85,17.61,27.59,19.61,43.31c.2,1.67.42,3.12.63,4.37-6.31,41.66-5.33,117.87-5.1,130.91h20c.18-14.71,1.88-149.19,2.51-153.29.66-4.35,9.06-20.9,21.93-27.69s24.07-29.29,24.07-29.29H210.3s-7.63,13.78-18.49,21.41a39.82,39.82,0,0,1-4.87,2.9,69.3,69.3,0,0,0-4.32-24.31l-2.23,2c3,12.29,2.59,20.16,1.69,24.68a44.37,44.37,0,0,0-11.21,7.51c-11.27-14.64-17.6-48.14-17.6-48.14l-2.88,1.58a168.09,168.09,0,0,0,3.72,20.54c2.11,8.67,8.32,25,11.21,32.35a76.25,76.25,0,0,0-8.5,16,7.16,7.16,0,0,0-1.09-1.3c-7.34-6.64-21.13-38-21.13-38-3.34-7.28,1.76-26.41,1.76-26.41h-3.88l-1.72,16.72-9.68-10.56-1.76,1.46,10.26,13.21,5.28,16.73-13.78-15.26Z" style="fill:#ebebeb"></path><path d="M479.62,184.33a8.67,8.67,0,0,0-4.86-1.23c-1-1.25-.2-3.18.82-4.47s2.24-2.77,1.86-4.37c-.57-2.42-4-2.5-6.39-2a17.35,17.35,0,0,1-1.32-4.95c-.44-1.67-1.76-3.35-3.47-3.2s-2.58,2-4.16,2.38a2.2,2.2,0,0,1-.36,0c-1.1-2.63-2.29-5.9,1.39-7.38a5.63,5.63,0,0,0,3.08-2.16,3.64,3.64,0,0,0-1.39-4.44A8.56,8.56,0,0,0,460,151.3c-1.06-1.28-.2-3.19.8-4.48s2.27-2.78,1.88-4.37c-.59-2.41-3.95-2.5-6.4-2a18,18,0,0,1-1.32-4.94c-.44-1.68-1.68-3.35-3.46-3.2s-2.58,2-4.15,2.38-3.35-1.19-4.85-2.4a5.19,5.19,0,0,0-.81-.54,3.71,3.71,0,0,0,.76-2.91c-.57-2.41-4-2.5-6.38-2a17.15,17.15,0,0,1-1.32-5c-.44-1.67-1.76-3.35-3.47-3.2s-2.58,2-4.16,2.38c-1.83.44-3.35-1.19-4.84-2.39s-3.94-2-4.91-.37c-.61,1-.25,2.28-.86,3.23-1.07,1.68-3.58.61-5.16-.55s-4.05-2.2-5.16-.59a6.24,6.24,0,0,0-.6,1.68,7,7,0,0,1-2.83,3.15,17.54,17.54,0,0,1-1.31-4.93c-.44-1.67-1.68-3.35-3.45-3.18s-2.58,2-4.16,2.36-3.35-1.17-4.84-2.4-3.94-2-4.93-.36c-.59,1-.23,2.29-.85,3.23-1.06,1.68-3.59.62-5.15-.54s-4.07-2.21-5.18-.6a7,7,0,0,0-.6,1.68c-.74,2.14-3.05,3.2-4.84,4.57s-3.24,4.11-1.68,5.78c.76.82,2.08,1.16,2.45,2.21.47,1.31-.87,2.5-1.95,3.36-1.76,1.49-2.09,6,.26,7.24.4.21.89.36,1.33.54-1.79.36-3.3-1.21-4.77-2.4s-3.94-2-4.93-.39c-.58,1-.23,2.3-.85,3.23-1.06,1.68-3.59.62-5.16-.53s-4.06-2.21-5.16-.61a7.86,7.86,0,0,0-.61,1.68c-.73,2.15-3,3.2-4.86,4.57s-3.21,4.11-1.67,5.79c.73.82,2.06,1.15,2.44,2.21s-.88,2.5-1.94,3.35a4.29,4.29,0,0,0-1.24,2.27,8.6,8.6,0,0,1-1.81-1c-1.56-1.16-4.07-2.21-5.16-.6a5.9,5.9,0,0,0-.62,1.67c-.74,2.15-3.05,3.2-4.84,4.58s-3.24,4.1-1.68,5.78c.75.82,2.08,1.15,2.45,2.21.47,1.31-.88,2.48-2,3.35-1.67,1.51-2.09,6,.25,7.26,1,.5,2.43.67,2.67,1.76s-.77,1.67-1.43,2.46a4.67,4.67,0,0,0,.84,6.54,4.56,4.56,0,0,0,.59.38c.57.27,1.26.49,1.46,1.09a2.11,2.11,0,0,1-.14,1.31,7.26,7.26,0,0,0-.22,2.5,1.13,1.13,0,0,0,.31.78,1.19,1.19,0,0,0,.73.22c3.35.15,5-1,7.09,1.89a2,2,0,0,0,.71.74,1.86,1.86,0,0,0,.92.24c2.33.2,3.83-1.26,6-1.53a5.06,5.06,0,0,1,2.12.13,3.66,3.66,0,0,0,1.35,3.41,5.14,5.14,0,0,0,.49.32c.43.21,1,.38,1.15.85a1.62,1.62,0,0,1-.11,1,5.4,5.4,0,0,0-.17,2,.71.71,0,0,0,.6.79.81.81,0,0,0,.22,0c2.66.11,3.94-.82,5.56,1.49a2.25,2.25,0,0,0,.56.59,1.71,1.71,0,0,0,.73.18c1.83.15,3-1,4.7-1.21,2.33-.28,2.81.91,4.86,1.86,3.26,1.65,4.82.71,5.43-1.49a10,10,0,0,0,.28-1.89c.23-3.94,4-3.35,7.21-3.86,2.49-.42-4.13-6.7.92-8.78a4.37,4.37,0,0,0,2.43-1.67,2.9,2.9,0,0,0-1.11-3.51,6.82,6.82,0,0,0-3.82-.95,1.79,1.79,0,0,1-.35-1.39l.12.15a2.51,2.51,0,0,0,.7.75,2.18,2.18,0,0,0,.94.24c2.33.18,3.84-1.26,6-1.53,2.95-.38,3.57,1.14,6.17,2.37,1.93,1,3.38,1.2,4.47.88a4.61,4.61,0,0,0,1.3,1.63,4.38,4.38,0,0,0,.62.4c.57.27,1.25.49,1.45,1.09a2.18,2.18,0,0,1-.13,1.31,7,7,0,0,0-.22,2.5,1.08,1.08,0,0,0,.3.78,1.24,1.24,0,0,0,.74.22c3.35.15,5-1,7.07,1.89a2.28,2.28,0,0,0,.71.74,2.18,2.18,0,0,0,.93.24c2.32.2,3.84-1.26,6-1.53,2.95-.37,3.57,1.14,6.17,2.36,4.05,2,6,.77,6.8-2a11.51,11.51,0,0,0,.37-2.41c.23-3.93,3.17-4.3,6.41-4.59a4.65,4.65,0,0,0,1.75,3.13,4.09,4.09,0,0,0,.62.4c.55.27,1.24.49,1.46,1.08a2.22,2.22,0,0,1-.14,1.32,7.26,7.26,0,0,0-.23,2.5,1.21,1.21,0,0,0,.3.79,1.34,1.34,0,0,0,.76.21c3.35.15,5-1,7.07,1.9a2.22,2.22,0,0,0,.7.73,1.86,1.86,0,0,0,.92.24c2.33.2,3.86-1.26,6-1.53,3-.37,3.57,1.14,6.16,2.37,4.06,2,6,.85,6.81-1.93a13.09,13.09,0,0,0,.35-2.41c.3-5,5-4.23,9.15-4.9,3.18-.53-5.23-8.56,1.17-11.14a5.62,5.62,0,0,0,3.09-2.16A3.65,3.65,0,0,0,479.62,184.33Zm-42.92,7.12a1.35,1.35,0,0,1,.75.87,1.33,1.33,0,0,1-.15,1A12.86,12.86,0,0,1,436.7,191.45Z" style="fill:#e6e6e6"></path><path d="M446.32,194.78s-8.46,12-11.38,15.76-17.5,27.39-19.47,43c-.22,1.67-.44,3.1-.64,4.36,6.27,41.39,5.3,117.12,5,130.09H400c-.19-14.63-1.88-148.28-2.5-152.35-.65-4.32-9-20.76-21.78-27.51S351.82,179,351.82,179h4.09s7.59,13.7,18.43,21.29a45.52,45.52,0,0,0,4.85,2.88A68.76,68.76,0,0,1,383.43,179l2.21,2c-3,12.22-2.58,20.11-1.68,24.52A44.4,44.4,0,0,1,395.12,213c11.2-14.56,17.48-47.84,17.48-47.84l2.88,1.57a170.71,170.71,0,0,1-3.78,20.45c-2.1,8.61-8.28,24.83-11.15,32.19a76.22,76.22,0,0,1,8.38,15.87A6.43,6.43,0,0,1,410,234c7.29-6.6,21-37.74,21-37.74,3.35-7.24-1.76-26.24-1.76-26.24h3.84l1.67,16.62,9.62-10.49,1.76,1.46-10,13.15-5.26,16.63,13.71-15.17Z" style="fill:#ebebeb"></path><path d="M26.85,370.53h452a8.9,8.9,0,0,1,9.12,8.67h0v13.05H17.73V379.19A8.91,8.91,0,0,1,26.85,370.53Z" style="fill:#f0f0f0"></path><g id="freepik--freepik--Streetlight--inject-443--inject-41"><polygon points="74.8 134.57 71.63 165.03 55.75 165.03 52.58 134.57 74.8 134.57" style="fill:#e0e0e0"></polygon><rect x="60.74" y="158.48" width="5.91" height="206.97" style="fill:#e0e0e0"></rect><polygon points="69.96 163.17 57.42 163.17 54.64 136.42 72.74 136.42 69.96 163.17" style="fill:#f0f0f0"></polygon><polygon points="62.04 163.59 61.19 163.59 60.26 135.5 61.11 135.5 62.04 163.59" style="fill:#e0e0e0"></polygon><path d="M63.69,124.78s-9.41,9.27-16.62,9.27l2.23,1.47H78l2.24-1.47C73.1,134.07,63.69,124.78,63.69,124.78Z" style="fill:#e0e0e0"></path></g><g id="freepik--freepik--Bench--inject-443--inject-41"><polygon points="374.42 390.89 379.77 390.89 368.82 329.11 363.47 329.11 374.42 390.89" style="fill:#e0e0e0"></polygon><polygon points="208.04 390.89 213.39 390.89 202.45 329.11 197.09 329.11 208.04 390.89" style="fill:#e0e0e0"></polygon><rect x="161.47" y="360" width="210.16" height="5.42" style="fill:#e0e0e0"></rect><polygon points="325.04 390.89 319.69 390.89 330.63 329.11 335.99 329.11 325.04 390.89" style="fill:#e0e0e0"></polygon><polygon points="158.66 390.89 153.31 390.89 164.26 329.11 169.61 329.11 158.66 390.89" style="fill:#e0e0e0"></polygon><polygon points="207.22 326.7 212.55 326.7 221.46 277.13 216.14 277.13 207.22 326.7" style="fill:#e0e0e0"></polygon><polygon points="361.7 326.7 367.03 326.7 375.95 277.13 370.62 277.13 361.7 326.7" style="fill:#e0e0e0"></polygon><polygon points="284.46 326.7 289.78 326.7 298.7 277.13 293.37 277.13 284.46 326.7" style="fill:#e0e0e0"></polygon><polygon points="198.01 280.51 386.62 280.51 388.29 271.23 199.69 271.23 198.01 280.51" style="fill:#e0e0e0"></polygon><polygon points="194.99 297.3 383.6 297.3 385.27 288.02 196.67 288.02 194.99 297.3" style="fill:#e0e0e0"></polygon><polygon points="191.97 314.08 380.58 314.08 382.25 304.8 193.65 304.8 191.97 314.08" style="fill:#e0e0e0"></polygon><rect x="152.18" y="325.25" width="227" height="6.41" style="fill:#e0e0e0"></rect></g></g><g id="freepik--Shadow--inject-41"><path d="M458.88,454.73c0,3.38-93.52,6.13-208.88,6.13s-208.88-2.75-208.88-6.13,93.52-6.14,208.88-6.14S458.88,451.34,458.88,454.73Z" style="fill:#f5f5f5"></path></g><g id="freepik--Characters--inject-41"><path d="M233.13,173.32l-7.34,19.53-44.28,19.53,2,8.4s48.4-6.66,52-10.55,15.52-31,15.52-31Z" style="fill:#e9b376"></path><polygon points="231.33 178.11 230.17 181.18 244.15 186.79 245.84 190.85 247.01 188.32 246.47 181.65 231.33 178.11" style="opacity:0.30000000000000004"></polygon><path d="M191.52,210.25s-1.69-3.65-4.83-4.76-5.34-2.82-7.73-3.48-.53,2.12.76,3.4,2.73,2.74,1.61,3.56S168.4,211,167,212.34s.55,1.69.55,1.69-2.86.39-3,1.56c0,.31.36,1.08,1.69,1.11,3,.07,9.28-.12,9.28-.12-.36,0-8.11.79-9.25,1.06-1.5.35-2,1.28-1.79,2.14.33,1.23,10,.58,10.39.84,0,0-5.56.18-6.3,1.64s2.77,1.54,5.88,1c2.84-.48,8.55-.67,11.4-1.44,3.51-1,5.65-2.37,6.2-5.73A11.6,11.6,0,0,0,191.52,210.25Z" style="fill:#e9b376"></path><path d="M167.9,214a.13.13,0,0,1,0-.25c2.3-.25,4.64-.4,6.94-.44h0a.12.12,0,0,1,.13.12.13.13,0,0,1-.13.13c-2.29,0-4.62.19-6.91.44Z" style="opacity:0.30000000000000004"></path><path d="M177,220.74a.12.12,0,0,1-.11-.07,15.6,15.6,0,0,1-.72-8.89.12.12,0,1,1,.24.06,15.31,15.31,0,0,0,.71,8.73.13.13,0,0,1-.07.17Z" style="opacity:0.30000000000000004"></path><path d="M187.46,214.13a5.4,5.4,0,0,1-5.25-4,.13.13,0,0,1,.09-.15.13.13,0,0,1,.16.08,5.14,5.14,0,0,0,5.34,3.83.14.14,0,0,1,.14.12.12.12,0,0,1-.12.13Z" style="opacity:0.30000000000000004"></path><path d="M201.16,156.84s8.42,0,11.05,10.18,2.1,48.78,3.44,54.49,12.56,48.23,15.11,68.78c0,0-11.9,1-13,.81s-18.87-83.87-18.87-83.87Z" style="fill:#00FF88"></path><g style="opacity:0.30000000000000004"><path d="M201.16,156.84s8.42,0,11.05,10.18,2.1,48.78,3.44,54.49,12.56,48.23,15.11,68.78c0,0-11.9,1-13,.81s-18.87-83.87-18.87-83.87Z"></path></g><path d="M217.9,175.34c5.93,12,15.37,24.69,15.37,24.69,3-.46,23.1-8.67,23.1-8.67l2.21,8.58a98.72,98.72,0,0,1-13.33,11c-12.12,8-16.59,7.45-22.77,1s-18.78-30.22-18.78-30.22l4.4-21.56L207,158.91C213.67,161.81,215,169.57,217.9,175.34Z" style="fill:#00FF88"></path><g style="opacity:0.30000000000000004"><path d="M217.9,175.34c5.93,12,15.37,24.69,15.37,24.69,3-.46,23.1-8.67,23.1-8.67l2.21,8.58a98.72,98.72,0,0,1-13.33,11c-12.12,8-16.59,7.45-22.77,1s-18.78-30.22-18.78-30.22l4.4-21.56L207,158.91C213.67,161.81,215,169.57,217.9,175.34Z"></path></g><path d="M214.56,200.68s1-10.38,0-16.15-2.09-11.21-2.09-11.21,3.82,8.73,4.25,15.1.16,16,.16,16Z" style="opacity:0.30000000000000004"></path><path d="M245.05,195.88c-.08,0,1.65,14.07,1.65,14.07l2.85-2.11-1.83-13Z" style="opacity:0.30000000000000004"></path><polygon points="147.88 443.91 158.66 444.96 164.55 417.43 147.88 415.87 147.88 443.91" style="fill:#e9b376"></polygon><path d="M160.23,440.57h-3.85a2.76,2.76,0,0,0-2.2,1.15c-2.22,3-3.88,1.88-6.3-1-1.54-.18-1.95,1.59-2.07,2.06l-2.88,10.47a1.64,1.64,0,0,0,1.13,2,1.55,1.55,0,0,0,.48.07H175c4.85,0,5.86-4.89,3.86-5.34-9-2-15.35-4.63-18.13-7.25C160.26,442.33,160.78,442,160.23,440.57Z" style="fill:#00FF88"></path><path d="M160.23,440.57h-3.85a2.76,2.76,0,0,0-2.2,1.15c-2.22,3-3.88,1.88-6.3-1-1.54-.18-1.95,1.59-2.07,2.06l-2.88,10.47a1.64,1.64,0,0,0,1.13,2,1.55,1.55,0,0,0,.48.07H175c4.85,0,5.86-4.89,3.86-5.34-9-2-15.35-4.63-18.13-7.25C160.26,442.33,160.78,442,160.23,440.57Z" style="opacity:0.30000000000000004"></path><path d="M168.58,443.55a1.57,1.57,0,0,0,.65-1.26.67.67,0,0,0-.31-.67c-1.21-.86-6,1.39-6.56,1.65a.24.24,0,0,0-.13.13.22.22,0,0,0,.13.28,17.49,17.49,0,0,0,3.61.46A4.28,4.28,0,0,0,168.58,443.55Zm0-1.57a.26.26,0,0,1,.12.29,1.28,1.28,0,0,1-.47.92c-1.1.81-3.74.46-5.16.2C165.11,442.51,168,441.52,168.62,442Z" style="fill:#263238"></path><path d="M162.52,443.73c1.45-.61,4.48-3,4.31-4.24,0-.26-.21-.58-.86-.66-2.64-.31-3.78,4.43-3.78,4.63a.23.23,0,0,0,.07.23h.15Zm3.36-4.51c.49,0,.49.22.49.28.14.77-2.06,2.74-3.63,3.57.32-1.1,1.29-3.87,3-3.87Z" style="fill:#263238"></path><path d="M158.81,445.9a.22.22,0,0,1-.13,0,.25.25,0,0,1-.08-.34,4.92,4.92,0,0,1,3.45-2.22.25.25,0,0,1,.28.21.24.24,0,0,1-.21.28,4.39,4.39,0,0,0-3.09,2A.25.25,0,0,1,158.81,445.9Z" style="fill:#263238"></path><path d="M161.1,447.5a.2.2,0,0,1-.13,0,.24.24,0,0,1-.08-.34,4.88,4.88,0,0,1,3.45-2.22.25.25,0,0,1,.28.21.26.26,0,0,1-.22.29,4.39,4.39,0,0,0-3.09,2A.26.26,0,0,1,161.1,447.5Z" style="fill:#263238"></path><path d="M164.37,449.11a.28.28,0,0,1-.13,0,.25.25,0,0,1-.08-.35,4.88,4.88,0,0,1,3.45-2.22.25.25,0,0,1,.28.21.24.24,0,0,1-.22.28,4.44,4.44,0,0,0-3.09,2A.26.26,0,0,1,164.37,449.11Z" style="fill:#263238"></path><polygon points="200.14 443.07 210.92 444.13 215.92 416.5 200.6 414.83 200.14 443.07" style="fill:#e9b376"></polygon><path d="M212.49,439.74h-3.85a2.75,2.75,0,0,0-2.2,1.14c-2.22,3-3.88,1.89-6.3-1-1.53-.18-1.95,1.58-2.07,2.05l-2.88,10.47a1.64,1.64,0,0,0,1.13,2,1.54,1.54,0,0,0,.48.06h30.5c4.85,0,5.86-4.89,3.86-5.34-9-2-15.35-4.63-18.13-7.24C212.52,441.5,213.05,441.16,212.49,439.74Z" style="fill:#00FF88"></path><path d="M220.84,442.72a1.58,1.58,0,0,0,.65-1.26.69.69,0,0,0-.31-.68c-1.21-.85-6,1.4-6.56,1.66a.21.21,0,0,0,0,.4,17.5,17.5,0,0,0,3.61.47A4.35,4.35,0,0,0,220.84,442.72Zm0-1.57a.25.25,0,0,1,.12.28,1.26,1.26,0,0,1-.47.92c-1.1.82-3.74.47-5.16.2C217.37,441.67,220.21,440.68,220.88,441.15Z" style="fill:#263238"></path><path d="M214.78,442.89c1.45-.6,4.48-3,4.31-4.23,0-.27-.21-.58-.86-.67-2.64-.3-3.77,4.44-3.77,4.64a.19.19,0,0,0,.06.22.19.19,0,0,0,.15,0Zm3.36-4.51c.49.05.49.23.49.29.14.77-2.06,2.74-3.63,3.57.32-1.11,1.29-3.87,3-3.87Z" style="fill:#263238"></path><path d="M211.89,445.07a.28.28,0,0,1-.13,0,.25.25,0,0,1-.08-.35,4.88,4.88,0,0,1,3.44-2.22.27.27,0,0,1,.29.22.26.26,0,0,1-.22.28,4.41,4.41,0,0,0-3.09,2A.25.25,0,0,1,211.89,445.07Z" style="fill:#263238"></path><path d="M214.28,446.87a.33.33,0,0,1-.13,0,.26.26,0,0,1-.08-.35,4.94,4.94,0,0,1,3.45-2.22.26.26,0,0,1,.28.22.25.25,0,0,1-.22.28,4.39,4.39,0,0,0-3.09,2A.24.24,0,0,1,214.28,446.87Z" style="fill:#263238"></path><path d="M217.26,448.38a.25.25,0,0,1-.14,0,.24.24,0,0,1-.07-.34,4.88,4.88,0,0,1,3.44-2.22.25.25,0,0,1,.29.21.26.26,0,0,1-.22.28,4.44,4.44,0,0,0-3.09,2A.25.25,0,0,1,217.26,448.38Z" style="fill:#263238"></path><path d="M217.48,239.08c.78,2.31,9.49,76.06,9.39,92-.08,12.88-9.61,102-9.61,102h-21s2.74-45.79,2.19-60.68,3-42.86,3-42.86l-22.45-67.16.84-22.53Z" style="fill:#263238"></path><path d="M150.41,338.17c.5-2.15,1.28-6.51,2.25-12.27l-.09,0c.71-7.62-1.73-47.06.67-69.58,1.86-14.35,5.28-22,9-26.73l.52-.67c.62-.76,1-1.18,1-1.18.7.17,1.4.34,2.09.49l.78.16c26.07,5.46,46.91-1.68,46.91-1.68,2.4,5.92,4.94,19.95,6.69,33.06-2.73,3-13.34,5.77-27.07,8.34l-3.91,17.71c-2.06,11-4.71,21.74-7,31.44l-2.34,10.62c-.15.69-.29,1.38-.42,2.06C178.3,336,165,433.51,165,433.51l-19.16-.44S143.73,367.27,150.41,338.17Z" style="fill:#263238"></path><path d="M212.49,439.74h-3.85a2.75,2.75,0,0,0-2.2,1.14c-2.22,3-3.88,1.89-6.3-1-1.53-.18-1.95,1.58-2.07,2.05l-2.88,10.47a1.64,1.64,0,0,0,1.13,2,1.54,1.54,0,0,0,.48.06h30.5c4.85,0,5.86-4.89,3.86-5.34-9-2-15.35-4.63-18.13-7.24C212.52,441.5,213.05,441.16,212.49,439.74Z" style="opacity:0.30000000000000004"></path><path d="M155.84,187.77l-2.82-25c4.35-6.49,21.82-9.94,21.82-9.94l14.18.78s7.5,1.77,12.17,3.29a49.46,49.46,0,0,1,5.45,9.84s6.86,14.67,5.79,25c-.45,4.34-1.43,20.88-.22,28.33l6.43,19.74c-25.91,20.18-57.86-.91-57.86-.91,1.16-3.57,3.72-11.46,4.25-14.94-.38-4.45-1.63-7.36-3.51-15.15C161.16,207.28,156.47,189.23,155.84,187.77Z" style="fill:#00FF88"></path><polygon points="186.61 209.71 191.83 209.25 193.91 216.62 188.67 218.42 186.61 209.71" style="fill:#e9b376"></polygon><path d="M190.29,208.86s.78-3.62,3.36-5.25,4.22-3.62,6.22-4.7,2.33,1.17,1.44,2.58-3.31,3.64-2.14,4.14,12-.78,13.56.1-.15,1.63-.15,1.63,2.44-.27,3,.78-.89,1.68-.89,1.68,1.64-.13,1.6,1-9.73,3.21-10.06,3.52c0,0,5.63-2,6.59-.83s-2.11,2.43-4.54,3.5a18.21,18.21,0,0,1-8.37,1.16c-3.37-.3-8.06.1-9.24-2.81A12.76,12.76,0,0,1,190.29,208.86Z" style="fill:#e9b376"></path><path d="M170.25,188.42c-1.14-13.22-3.74-34-9.23-31.51-3.51,1.57-5.72,2.64-7.53,4.19-1.19,1-1.39,3.43-2.19,6-2.22,7.18,1.72,58.26,1.72,58.26l-12.6,71.08L166,299.79S171.4,201.65,170.25,188.42Z" style="fill:#00FF88"></path><path d="M170.25,188.42c-1.14-13.22-3.74-34-9.23-31.51-3.51,1.57-5.72,2.64-7.53,4.19-1.19,1-1.39,3.43-2.19,6-2.22,7.18,1.92,57.29,1.92,57.29L140.4,296.55,166,299.79S171.4,201.65,170.25,188.42Z" style="opacity:0.30000000000000004"></path><path d="M158.31,215.51s4.26-24.81,4-36.32l-8.07,31Z" style="opacity:0.30000000000000004"></path><path d="M151.5,224.9a12,12,0,0,0,4.26,3.35c3.48,1.45,13.79-1.7,13.79-1.7l.14-4.4Z" style="opacity:0.30000000000000004"></path><path d="M162.29,179.19c-.64,0-5.13,28.86-5.13,28.86l31.76-.71,1.78,12.79s-13.9,3.38-29.28,5.89c-15.86,2.58-21.8-4.44-21.87-15.2-.07-9.87,4-33.84,4-33.84,2.06-9.44,6.11-12.92,11.09-16.79Z" style="fill:#00FF88"></path><path d="M162.29,179.19c-.64,0-5.13,28.86-5.13,28.86l31.76-.71,1.78,12.79s-13.9,3.38-29.28,5.89c-15.86,2.58-21.8-4.44-21.87-15.2-.07-9.87,4-33.84,4-33.84,2.06-9.44,6.11-12.92,11.09-16.79Z" style="opacity:0.30000000000000004"></path><path d="M170.93,104.35s3.78-5.64,13.82-6.38,21.29,2.17,26.73,15.94l-4.39,1.1a102.87,102.87,0,0,1,3.8,31.89s-30.78,4.12-50.69.69a168.24,168.24,0,0,1,2.08-27.92C164.75,103.44,170.93,104.35,170.93,104.35Z" style="fill:#263238"></path><path d="M171.68,154.23s4.52,3.2,10.37,7.85a21.31,21.31,0,0,0,3.95,2.48c3.79,1.82,7.21,2.81,8.05,1a6,6,0,0,0,.43-1.28c.66-3,.17-7.22-2.32-9.05-2.81-2.06-4.2-3.87-3.82-6.83a21.76,21.76,0,0,1,1.36-5.11l-3.22-1.77-11.67-10.89C176.37,137.52,177.43,149.89,171.68,154.23Z" style="fill:#e9b376"></path><path d="M188.27,149c-3.16-1.71-6.67-4.75-6.41-8.4a16.83,16.83,0,0,1,.73-3.94l6.59,8.05A21.35,21.35,0,0,0,188.27,149Z" style="opacity:0.2"></path><path d="M172.13,117.94c1.51,11.49,1.91,16.37,8.1,22.18,9.31,8.75,23,5.15,24.88-6.38,1.73-10.37-1-27.42-12.54-31.82C181.23,97.58,170.62,106.45,172.13,117.94Z" style="fill:#e9b376"></path><path d="M187.82,121.11c.11,1.21.81,2.19,1.57,2.18s1.29-1,1.18-2.23-.8-2.2-1.56-2.18S187.72,119.89,187.82,121.11Z" style="fill:#263238"></path><path d="M199.54,120.59c.1,1.18.8,2.12,1.56,2.11s1.28-1,1.18-2.17-.8-2.12-1.56-2.11S199.43,119.41,199.54,120.59Z" style="fill:#263238"></path><path d="M184.65,117a.52.52,0,0,0,.4-.15,4.2,4.2,0,0,1,3.76-1.21.52.52,0,0,0,.65-.41.62.62,0,0,0-.45-.69,5.17,5.17,0,0,0-4.77,1.47.59.59,0,0,0,0,.81A.61.61,0,0,0,184.65,117Z" style="fill:#263238"></path><path d="M202.19,114.69a.45.45,0,0,0,.25-.27.62.62,0,0,0-.31-.73,4.8,4.8,0,0,0-4.69-.12.57.57,0,0,0,.63.94,3.86,3.86,0,0,1,3.71.14A.54.54,0,0,0,202.19,114.69Z" style="fill:#263238"></path><path d="M195.47,120.18a39.34,39.34,0,0,0,4.12,6.86.9.9,0,0,1-.37,1.38,5.67,5.67,0,0,1-3.08.17Z" style="fill:#d58745"></path><path d="M188.58,118.94l2.62-.73S189.83,120.24,188.58,118.94Z" style="fill:#263238"></path><path d="M200.32,118.48l2.62-.73S201.58,119.78,200.32,118.48Z" style="fill:#263238"></path><path d="M179.1,124.34s2.76-8.33,1.18-15c0,0,21.26-9.67,24.94,11.59,0,0-2.85-23.67-21.18-21.84s-19.64,29.73-9.22,36.53C174.82,135.68,176.7,130.21,179.1,124.34Z" style="fill:#263238"></path><path d="M169,127.47a9.32,9.32,0,0,0,5.78,4.14c3.08.65,4.47-4.32,3.3-7.34a6.12,6.12,0,0,0-7.06-3.7C168.13,121.27,167.35,124.83,169,127.47Z" style="fill:#e9b376"></path><path d="M175.44,126.85a.25.25,0,0,1-.25-.22,3.95,3.95,0,0,0-4.32-3.5.27.27,0,0,1-.28-.23.25.25,0,0,1,.23-.27,4.45,4.45,0,0,1,4.87,4,.25.25,0,0,1-.22.27Z" style="opacity:0.2"></path><path d="M192.42,132.47a4.17,4.17,0,0,1-3.7-2.46.25.25,0,0,1,.13-.33.26.26,0,0,1,.33.14,3.6,3.6,0,0,0,4.34,2,.24.24,0,0,1,.3.18.25.25,0,0,1-.18.3A5,5,0,0,1,192.42,132.47Z" style="fill:#263238"></path><path d="M251.57,194.4s-.47-4,1.63-6.58,3.08-5.2,4.77-7,1.56,1.53,1.13,3.29-.89,3.77.48,3.88,12.11-5,14-4.63.42,1.74.42,1.74,2.64-1.17,3.38-.25c.2.24.26,1.11-.86,1.83-2.52,1.62-8,4.75-8,4.75.31-.19,7.33-3.57,8.45-3.94,1.46-.48,2.39,0,2.64.89.36,1.22-8.19,5.71-8.42,6.15,0,0,4.84-2.75,6.23-1.89s-1.56,2.76-4.48,3.94c-2.68,1.07-7.65,3.89-10.47,4.73-3.49,1-6.06.93-8.29-1.65A11.57,11.57,0,0,1,251.57,194.4Z" style="fill:#e9b376"></path><path d="M267.49,188.54a.14.14,0,0,1-.11-.06.13.13,0,0,1,.05-.17c2-1.17,4.05-2.27,6.14-3.25a.12.12,0,0,1,.16.06.11.11,0,0,1-.06.16c-2.07,1-4.13,2.08-6.12,3.25Z" style="opacity:0.30000000000000004"></path><path d="M269.36,195.78a.13.13,0,0,1-.12-.11,15.39,15.39,0,0,0-4-7.82.12.12,0,0,1,0-.17.13.13,0,0,1,.18,0,15.62,15.62,0,0,1,4,7.95.12.12,0,0,1-.1.14Z" style="opacity:0.30000000000000004"></path><path d="M256.68,195.77a.12.12,0,0,1-.06-.23A5.31,5.31,0,0,0,259,193a5.23,5.23,0,0,0,.18-3.49.13.13,0,0,1,.09-.16.12.12,0,0,1,.15.08,5.4,5.4,0,0,1-2.68,6.36Z" style="opacity:0.30000000000000004"></path><g id="freepik--freepik--character-3--inject-124--inject-41"><path d="M282.6,83c2.51-1.36-6.21,6.44-5.26,14.13s2.77,26.07,2.77,26.07l17.6-4.68Z" style="fill:#263238"></path><g id="freepik--freepik--group--inject-124--inject-41"><path d="M385.9,185.23l-26.46,17.49a20.91,20.91,0,0,1-2.2-2.59c-3.55-4.59-8.67-12.85-10.32-15.56l-13.34,20c3.9,4.07,19.8,14.86,22.48,15.3,6.95,1.15,34.76-28.95,34.76-28.95Z" style="fill:#e9b376"></path><path d="M287.47,123.16c-6,2.58-15.49,19.33-15.49,19.33l2.46,3.94,4.44,2.08s7.2-11.7,11.95-13.8S287.47,123.16,287.47,123.16Z" style="fill:#00FF88"></path><path d="M287.47,123.16c-6,2.58-15.49,19.33-15.49,19.33l2.46,3.94,4.44,2.08s7.2-11.7,11.95-13.8S287.47,123.16,287.47,123.16Z" style="fill:#fff;opacity:0.30000000000000004"></path><path d="M287.47,123.16a45.45,45.45,0,0,1,31.36-4.45c3.15,1.54,5.51,4.12,9.05,23,1.17,6.28,7.52,6.39,10.23,12.41a4.93,4.93,0,0,1-1.06,6.89,4.74,4.74,0,0,1-1.1.61c-9.43,3.76-27.15,9.88-37.29,7.15C298.67,168.78,288.12,143.61,287.47,123.16Z" style="fill:#00FF88"></path><path d="M287.47,123.16a45.45,45.45,0,0,1,31.36-4.45c3.15,1.54,5.51,4.12,9.05,23,1.17,6.28,7.52,6.39,10.23,12.41a4.93,4.93,0,0,1-1.06,6.89,4.74,4.74,0,0,1-1.1.61c-9.43,3.76-27.15,9.88-37.29,7.15C298.67,168.78,288.12,143.61,287.47,123.16Z" style="fill:#fff;opacity:0.30000000000000004"></path><path d="M336.83,216c9.9,25.86,17.3,42.7,17.3,42.7L347.76,262s-14.62-15.57-27.9-42.71a211,211,0,0,1-8.57-20l16.59-14A246.25,246.25,0,0,0,336.83,216Z" style="fill:#e9b376"></path><path d="M311.29,199.33,323.22,193c1.62,8.05,8.91,6.58,11.76,17.78-3.75,1.12-13.56,3.83-17.57,3.36A116.47,116.47,0,0,1,311.29,199.33Z" style="isolation:isolate;opacity:0.2"></path><path d="M344.09,257.94l8.41-2.74a.55.55,0,0,1,.71.31v0h0l2.58,6.53a1.39,1.39,0,0,1-.88,1.74c-2.95.91-4.41,1.16-8.11,2.37a74.41,74.41,0,0,1-10,2.91c-3.27.52-3.68-2.73-2.34-3.26,3.16-1.21,6.87-4.71,8.44-7.06A2.16,2.16,0,0,1,344.09,257.94Z" style="fill:#263238"></path><path d="M340.27,260.18a1,1,0,0,1-.53-.91.7.7,0,0,1,.24-.62c.8-.66,3.4.08,3.7.18a.26.26,0,0,1,.13.16.16.16,0,0,1-.1.17,9.64,9.64,0,0,1-1.91.93A2.13,2.13,0,0,1,340.27,260.18Zm0-1.22a.32.32,0,0,0-.12.31.68.68,0,0,0,.32.58c.47.23,1.47-.05,2.72-.71-1-.28-2.5-.5-2.94-.14Z" style="fill:#00FF88"></path><path d="M343.58,259.22c-.89-.2-2.52-1.41-2.61-2.28a.68.68,0,0,1,.46-.73,1,1,0,0,1,.83,0c1,.49,1.52,2.73,1.55,2.79a.27.27,0,0,1-.06.17.08.08,0,0,1-.08,0A.14.14,0,0,1,343.58,259.22Zm-2-2.68a.29.29,0,0,0-.24.36,3.79,3.79,0,0,0,2,1.89c-.19-.71-.67-1.92-1.27-2.2a.48.48,0,0,0-.42,0Z" style="fill:#00FF88"></path><path d="M388.58,193.23l-5.72-6.73a.57.57,0,0,1,0-.79h0l5.06-4.87a1.4,1.4,0,0,1,1.95.15c2,2.38,2.81,3.62,5.27,6.57a72.88,72.88,0,0,1,6.49,8.11c1.71,2.84-1.13,4.44-2.11,3.4-2.32-2.47-7-4.56-9.75-5.12A2.27,2.27,0,0,1,388.58,193.23Z" style="fill:#263238"></path><path d="M392.08,195.88a1,1,0,0,1-.64.83.65.65,0,0,1-.66,0c-.94-.49-1.2-3.18-1.23-3.49a.22.22,0,0,1,.09-.17.18.18,0,0,1,.2,0,9.27,9.27,0,0,1,1.58,1.42A2,2,0,0,1,392.08,195.88Zm-1.1.5a.31.31,0,0,0,.32,0,.66.66,0,0,0,.42-.52c0-.52-.6-1.34-1.73-2.23.15,1.07.5,2.49,1,2.76Z" style="fill:#00FF88"></path><path d="M389.94,193.18c.15.94-.34,2.86-1.11,3.28a.72.72,0,0,1-.86-.15.94.94,0,0,1-.31-.76c.08-1.11,1.95-2.45,2-2.49a.19.19,0,0,1,.18,0,.06.06,0,0,1,0,.06A.24.24,0,0,1,389.94,193.18ZM388.25,196a.33.33,0,0,0,.43.1,3.92,3.92,0,0,0,.94-2.57c-.58.46-1.53,1.35-1.57,2a.54.54,0,0,0,.12.42Z" style="fill:#00FF88"></path><path d="M309.24,119.13s-5.27,6.07-10.63,6.79c-4.18.55-4-3.07-4-3.07a7.44,7.44,0,0,0,.94-2c1.46-4.69-3.33-8.09-3.33-8.09l4.29-2.23,9.38-4.9C303.3,114.63,309.24,119.13,309.24,119.13Z" style="fill:#e9b376"></path><path d="M305.07,109.47s-2.82,9.77-9.46,11.36c1.45-4.69-3.33-8.09-3.33-8.09l4.29-2.23Z" style="isolation:isolate;opacity:0.2"></path><path d="M311.43,93.72c1.11,8.58-1.75,18.93-8.5,21.64-12.42,5-17.95,3.51-21.33-5.76-3.08-8.33-2.81-22.51,7.34-27.21S309.87,81.8,311.43,93.72Z" style="fill:#e9b376"></path><path d="M292.59,100.1c.18,1.09-.26,2.07-.94,2.18s-1.43-.68-1.61-1.77.26-2,.94-2.16S292.41,99,292.59,100.1Z" style="fill:#263238"></path><path d="M283.84,101.09c.17,1-.24,2-.94,2.09s-1.36-.66-1.53-1.69.25-2,.94-2.08S283.72,100.06,283.84,101.09Z" style="fill:#263238"></path><path d="M288.57,95.16a.47.47,0,0,1-.2-.22.48.48,0,0,1,.29-.63h0a4.85,4.85,0,0,1,4.49.48.49.49,0,0,1,.09.69h0a.51.51,0,0,1-.69.1h0a3.86,3.86,0,0,0-3.58-.31A.55.55,0,0,1,288.57,95.16Z" style="fill:#263238"></path><path d="M280.23,97a.52.52,0,0,1-.29-.09.5.5,0,0,1,0-.7,4.83,4.83,0,0,1,4.17-1.73.49.49,0,0,1,.42.55h0a.52.52,0,0,1-.57.42h0a3.88,3.88,0,0,0-3.29,1.44A.53.53,0,0,1,280.23,97Z" style="fill:#263238"></path><path d="M285.75,102.08l1.87,4.41a6,6,0,0,1-3.49.38A14,14,0,0,0,285.75,102.08Z" style="fill:#d58745"></path><path d="M302.93,100.8s1.27-5.63,4.28-4.5,4.09,10,.08,10.71S301.64,104,302.93,100.8Z" style="fill:#e9b376"></path><path d="M288.11,110.23a27.9,27.9,0,0,1,2.76,2.89l.61-.35c2.73-1.65,3.46-3.31,3.43-4.65a4.65,4.65,0,0,0-1.17-2.81c-.94,1.73-3.37,3.45-4.69,4.31A8.42,8.42,0,0,1,288.11,110.23Z" style="fill:#263238"></path><path d="M289,109.66l.84.84c2.57-1.55,4.17-3,4.51-4.25a4,4,0,0,0-.65-.94C292.8,107.08,290.37,108.8,289,109.66Z" style="fill:#fff"></path><path d="M291.48,112.77c2.73-1.65,3.46-3.31,3.43-4.65a10.4,10.4,0,0,0-2.67,2.41A3.85,3.85,0,0,0,291.48,112.77Z" style="fill:#c15854"></path><path d="M302,139.21s5.19-6.4,8.3-1.74c3.86,5.77-8.39,14.76-8.39,14.76s-8.82-7.21-6.48-12.68C298.39,132.65,302,139.21,302,139.21Z" style="fill:#fff"></path><path d="M296.36,165c-2.89,7.25-1.48,31.9,4.25,48.23,0,0,7.58,2.35,28.81-3.66,17.48-4.94,27.95-11.78,27.95-11.78-6.19-12.81-16.77-43.08-19.29-44Z" style="fill:#00FF88"></path><path d="M357.37,197.75s-1.55,1-4.43,2.53c-1.37.72-3,1.56-5,2.46-1.74.8-3.71,1.66-5.9,2.51q-2.24.92-4.79,1.81c-2.41.85-5,1.69-7.83,2.48-.76.22-1.49.42-2.21.61-1.34.36-2.63.69-3.86.94-3,.71-5.64,1.25-8,1.61-1.88.31-3.48.52-4.94.65a45.7,45.7,0,0,1-5.36.26,14.73,14.73,0,0,1-2-.08,12.77,12.77,0,0,1-2.53-.37c-5.72-16.37-7.13-41-4.24-48.22l41.72-11.26C340.6,154.68,351.18,185,357.37,197.75Z" style="isolation:isolate;opacity:0.2"></path><path d="M299.92,188.32l5.18,25.33a14.73,14.73,0,0,1-2-.08Z" style="isolation:isolate;opacity:0.2"></path><path d="M310.46,213.39l-3.75-38.21,8.65,37.53C313.56,213,311.92,213.26,310.46,213.39Z" style="isolation:isolate;opacity:0.2"></path><path d="M323.36,211.16,316.2,172.6l11,37.59C325.88,210.51,324.59,210.84,323.36,211.16Z" style="isolation:isolate;opacity:0.2"></path><path d="M337.26,207.06l-9.38-38.24,14.21,36.43C340.56,205.86,339,206.47,337.26,207.06Z" style="isolation:isolate;opacity:0.2"></path><path d="M352.94,200.28c-1.37.72-3,1.56-5,2.46l-11.12-36.33Z" style="isolation:isolate;opacity:0.2"></path><path d="M359.44,202.72a26.54,26.54,0,0,1,0,5.15,9.17,9.17,0,0,0,1.76-6.31Z" style="isolation:isolate;opacity:0.2"></path></g><polygon points="287.23 137.48 287.75 129.73 288.82 135.94 287.23 137.48" style="isolation:isolate;opacity:0.2"></polygon><path d="M325,110.44c-.65-1.41-8.26-26.83-16.94-31.37-4.7-2.9-11.26-3.18-17.56-1.76-9.15,2-11.41,9.15-6,12,.09.44,10.39,2.54,14.14,8.47,4,6.34.66,9.24,3,13.9s3.37,5.42,3.37,5.42l17-4.65S325.69,112,325,110.44Z" style="fill:#263238"></path></g><polygon points="247.68 418.56 238.47 444.18 229.88 441.49 232.57 414.52 247.68 418.56" style="fill:#e9b376"></polygon><path d="M239.84,451.73h0c-.2,1.87-.34,3.16-.34,3.16l-7.77,0a5.9,5.9,0,0,0-2.49-.72c-.92.12-4.12.74-4.12.74l-20.64,0a15.94,15.94,0,0,1,.6-2.32,10.07,10.07,0,0,1,1-2.13,5.8,5.8,0,0,1,4.91-3c2.89-.19,12-6.28,12-6.28a5.43,5.43,0,0,0,3.47-4.68c.06-1.31,2-2.92,2.93-3.06,1.88-.28,2.94.92,3.21,2.8l.33,2.19,4.35-.68s4.43-2.25,4.22-.08" style="fill:#263238"></path><g style="opacity:0.2"><path d="M204.48,455l20.64,0s3.2-.62,4.12-.74a5.9,5.9,0,0,1,2.49.72l7.77,0s.14-1.29.34-3.16l-34.76.92A15.94,15.94,0,0,0,204.48,455Z" style="fill:#fff"></path></g><path d="M218.41,443.55a.29.29,0,0,1,.35,0,3.66,3.66,0,0,1,1.24,1.42c.15.32-.31.62-.47.3a3.15,3.15,0,0,0-1.08-1.25.28.28,0,0,1,0-.43Z" style="fill:#00FF88"></path><path d="M220.05,442.58a.29.29,0,0,1,.35,0,3.66,3.66,0,0,1,1.24,1.42c.15.31-.31.62-.47.3a3.08,3.08,0,0,0-1.08-1.25.28.28,0,0,1-.05-.44Z" style="fill:#00FF88"></path><path d="M221.74,441.67a.29.29,0,0,1,.35,0,3.58,3.58,0,0,1,1.24,1.42c.15.32-.31.63-.46.31a3.21,3.21,0,0,0-1.09-1.26.28.28,0,0,1-.05-.43Z" style="fill:#00FF88"></path><polygon points="307.07 415.72 311.13 443.45 320.18 443.82 322.85 417.02 307.07 415.72" style="fill:#e9b376"></polygon><path d="M328,456.18l-20.24.2s-.45-.84,0-3.11q.1-.52.3-1.17s0,0,0-.06c.19-.63.4-1.4.62-2.24.89-3.39,1.94-7.83,1.94-7.83s3.3-7.25,7.26-5.49c3.47,1.55,2.7,6.08,2.7,6.08a8.85,8.85,0,0,0,3,5c1.64,1.43,3.26,2.54,4.06,4.33a6.51,6.51,0,0,1,.35,1.08.59.59,0,0,1,0,.14A8.4,8.4,0,0,1,328,456.18Z" style="fill:#263238"></path><g style="opacity:0.2"><path d="M307.8,453.27c-.48,2.27,0,3.11,0,3.11l20.24-.2a8.4,8.4,0,0,0,.05-3.11Z" style="fill:#fff"></path></g><path d="M319.82,443.7a2.72,2.72,0,0,0-3.65.26c-.28.28-.7-.14-.43-.41a3.34,3.34,0,0,1,4.5-.28c.31.24-.12.66-.42.43Z" style="fill:#00FF88"></path><path d="M320.41,445.59a2.71,2.71,0,0,0-3.65.26c-.28.27-.7-.15-.43-.42a3.33,3.33,0,0,1,4.5-.27c.31.23-.12.66-.42.43Z" style="fill:#00FF88"></path><path d="M321,447.32a2.71,2.71,0,0,0-3.65.26.3.3,0,0,1-.43-.42,3.34,3.34,0,0,1,4.5-.27c.31.24-.12.66-.42.43Z" style="fill:#00FF88"></path><path d="M327.22,240.31l-42.39.77-26.61-.54s-17.89,80.72-19.33,95.9-14.27,95.18-14.27,95.18L245.35,436s22.68-85.62,24.29-93.85c1.41-7.16,17.3-53.17,21.36-64.87.44,2.38.9,4.77,1.36,7.15,1.16,10.74,4.88,45,6.48,57.72,0,0,3.92,72.82,7.85,93.94l19.46-.16c2.28-30.06,2.89-135.57,2.89-135.57h0C330.25,277.39,327.22,240.31,327.22,240.31Z" style="fill:#263238"></path><g style="opacity:0.5"><path d="M269.25,252.47a25.73,25.73,0,0,1-17.07,17.2c-.43.13-.24.82.2.68a26.44,26.44,0,0,0,17.56-17.69.36.36,0,0,0-.69-.19Z"></path><path d="M291.45,252.25q-.61,10.68-1.22,21.35c0,.46-.73.47-.71,0q.32-5.48.62-11c-1.74,1.37-3.81-.25-4.4-2.05-1-2.93-.64-6.42.06-9.36a.36.36,0,0,1,.69.18,20.25,20.25,0,0,0-.52,6.3,8.45,8.45,0,0,0,.71,3.29c.57,1.1,2,2,3.13,1a.35.35,0,0,1,.37-.06c.19-3.22.38-6.46.56-9.68C290.76,251.8,291.47,251.8,291.45,252.25Z"></path><path d="M312.37,253.26a18,18,0,0,0,16.71,17.89c.45,0,.44-.67,0-.7a17.24,17.24,0,0,1-16-17.2.35.35,0,0,0-.7,0Z"></path></g><path d="M242.19,142.15c-8.38,4.92-14.65,34.72-14.65,34.72L251,184.53l8.14-17.07Z" style="fill:#00FF88"></path><path d="M247.77,166.55l-1.34,16.6-5.89-2c2.38-6.36,1.2-29.83,1.2-29.83S245.61,162.34,247.77,166.55Z" style="isolation:isolate;opacity:0.2"></path><path d="M246.83,140c6-1.72,25.94-8.67,51.84-9.2L310.6,156.2l12.87,62.64s2.53,7.18,4.65,20.87c-23.7,15.78-56.15,15.44-75,8.81-.74-8.08.52-6.51-1.24-22.08-3.1-27.42-9-58.89-10-84C242,141.85,246.23,140.19,246.83,140Z" style="fill:#00FF88"></path><path d="M282.93,131.37c-4.65-7.81-11.73-14-11.64-25.58l-14.39,21.6a21.34,21.34,0,0,1,1.9,2.34,10.55,10.55,0,0,1,2,5c.14,1.5-2.53,4.77-2.53,4.77s6.8,3.64,18.27-.22C283.37,137,282.93,131.37,282.93,131.37Z" style="fill:#e9b376"></path><path d="M268.64,116.07c3.84,8.61-3.74,15.77-7.82,18.63a10.55,10.55,0,0,0-2-4.95Z" style="isolation:isolate;opacity:0.2"></path><path d="M270.84,100.13c.8,11.5,1.48,18-3.54,24.54-7.54,9.87-22,6.58-26.22-4.49-3.8-10-4.46-27.11,6.15-33A15.91,15.91,0,0,1,270.84,100.13Z" style="fill:#e9b376"></path><path d="M267.41,83.8c-4.91-6.5-15.08-1.67-19.06,2.12-.6.56,9.35,4,8.76,3.9l3,2.84c.42-.15,1,3.82,1.56,7.27a17.52,17.52,0,0,0,3.83,8.59,45.61,45.61,0,0,0,6.64,6.62c3.73-2.47,3.05-9.44,3.77-13.73C277,95,277.59,82.94,267.41,83.8Z" style="fill:#263238"></path><path d="M276.6,109.05a10.86,10.86,0,0,1-4.54,7c-3.19,2.14-4.95-1.42-5.09-5.06-.14-3.27.29-7.34,4-8S277.2,105.55,276.6,109.05Z" style="fill:#e9b376"></path><path d="M257.93,105.17c.16,1.17-.34,2.19-1.11,2.29s-1.51-.78-1.66-1.95.34-2.19,1.11-2.28S257.78,104,257.93,105.17Z" style="fill:#263238"></path><path d="M244.73,107.15c.15,1.17-.34,2.19-1.11,2.28s-1.51-.78-1.66-1.94.34-2.19,1.11-2.29S244.58,106,244.73,107.15Z" style="fill:#263238"></path><path d="M247.16,106.16s-2.94,6.29-3.82,8.81c1.82,1.25,4.53.21,4.53.21Z" style="fill:#d58745"></path><path d="M257.07,99.68a.54.54,0,0,1-.56,0,4.5,4.5,0,0,0-4-.38.55.55,0,0,1-.74-.25.54.54,0,0,1,.25-.73,5.49,5.49,0,0,1,5,.42.54.54,0,0,1,.2.75A.52.52,0,0,1,257.07,99.68Z" style="fill:#263238"></path><path d="M268.82,110.59a.25.25,0,0,1-.25-.25,5.92,5.92,0,0,1,.74-3,3.85,3.85,0,0,1,1.89-1.79,2.33,2.33,0,0,1,2.57.51.25.25,0,0,1,0,.35.25.25,0,0,1-.36,0,1.85,1.85,0,0,0-2-.38,3.44,3.44,0,0,0-1.64,1.57,5.48,5.48,0,0,0-.67,2.74.26.26,0,0,1-.25.26Z" style="opacity:0.2"></path><path d="M237.81,103a.53.53,0,0,1-.29-.12.56.56,0,0,1-.1-.78,5.42,5.42,0,0,1,4.51-2.17.55.55,0,0,1-.09,1.1,4.19,4.19,0,0,0-3.55,1.76A.57.57,0,0,1,237.81,103Z" style="fill:#263238"></path><path d="M267.41,83.8a19.53,19.53,0,0,0-18.84-7c-9.91,1.72-15.44,8.57-16,15.4a13.81,13.81,0,0,0,.94,6.75,1.41,1.41,0,0,0,2.64-.1,9.28,9.28,0,0,1,.45-1,2.56,2.56,0,0,0,.11.24,1.43,1.43,0,0,0,2.68-.48,7.21,7.21,0,0,1,.22-1.3l0,0a1.41,1.41,0,0,0,2.58-.32,10.22,10.22,0,0,1,13.9-6.13l4.08,2.76C265.16,90.12,267.41,83.8,267.41,83.8Z" style="fill:#263238"></path><path d="M253,118.56a33.14,33.14,0,0,1,4,2.34c.18-.2.38-.39.56-.6,2.53-2.73,2.81-4.83,2.34-6.33a5,5,0,0,0-1.21-1.94,4.63,4.63,0,0,0-1-.79c-.48,2.25-2.63,5-3.85,6.38C253.27,118.2,253,118.56,253,118.56Z" style="fill:#263238"></path><path d="M253.78,117.62l1.21.65c2.37-2.57,3.71-4.69,3.67-6.24a4.57,4.57,0,0,0-1-.79C257.16,113.51,255,116.21,253.78,117.62Z" style="fill:#fff"></path><path d="M257.53,120.3c2.54-2.73,2.82-4.83,2.34-6.33a11.91,11.91,0,0,0-2.21,3.58A4.53,4.53,0,0,0,257.53,120.3Z" style="fill:#c15854"></path><polygon points="256.5 138.38 260.23 132.36 268.9 138.62 278.72 124.78 286.33 131.73 276.4 147.09 265.13 146.16 256.5 138.38" style="fill:#00FF88"></polygon><g id="freepik--freepik-group-inject-124--inject-41"><path d="M352.43,153.32c-4.25-5-32.67-13.2-38.68-15.39l-8.65,17.93,7.49,1.75,29.46,7.6,6.69,9.27a35.82,35.82,0,0,0,4.51-6.62C355.54,163.71,354.43,155.66,352.43,153.32Z" style="fill:#e9b376"></path><path d="M328.87,142.26l-4.59,18.38-9.73-2.32L317.93,139S323,140.64,328.87,142.26Z" style="isolation:isolate;opacity:0.2"></path><path d="M290.87,134c-1.73,5.71-.91,16,7.81,20.61,6.2,3.29,20.65,7.9,20.65,7.9l10.49-23.32S293.75,124.49,290.87,134Z" style="fill:#00FF88"></path></g><polygon points="311.33 159.79 302.18 155.45 312.42 165.06 311.33 159.79" style="isolation:isolate;opacity:0.30000000000000004"></polygon><g style="isolation:isolate;opacity:0.2"><path d="M292.92,236.3c5.4-1.22,9.86-6.92,12.18-11.94a139.37,139.37,0,0,0,5.08-13.92l-9.52,12.28a37.05,37.05,0,0,1-6.46,7c-3.51,2.68-7.85,4-12.13,5.07a128.31,128.31,0,0,1-16.85,3A84.08,84.08,0,0,0,292.92,236.3Z"></path></g><path d="M279.63,143.76s-1.63-2.71-3.74-3.33-3.76-1.79-5.34-2.13-1.07,1.57-.07,2.47,3.2,2,2.63,2.76-7.68,2.6-8.35,3.72.6,1.27.6,1.27-1.59.44-1.62,1.44,1.08,1.12,1.08,1.12-1.05.34-.65,1.26,7,0,7.34.15c0,0-4.12-.1-4.34,1.09s2.07,1.39,3.92,1.61a9.58,9.58,0,0,0,5.54-1.32c2-1.14,5-2.08,4.83-4.74A14.22,14.22,0,0,0,279.63,143.76Z" style="fill:#e9b376"></path><path d="M311.78,120.84c-4.51,4-11.45,16-14.55,16.76S280,144.49,280,144.49l.64,7.4s18.61-1.56,23.09-4,15.67-11.58,17.9-15.81C325.87,124,315.79,116.94,311.78,120.84Z" style="fill:#00FF88"></path><g style="opacity:0.30000000000000004"><path d="M311.78,120.84c-4.51,4-11.45,16-14.55,16.76S280,144.49,280,144.49l.64,7.4s18.61-1.56,23.09-4,15.67-11.58,17.9-15.81C325.87,124,315.79,116.94,311.78,120.84Z" style="fill:#fff"></path></g></g></svg>
